PathFileType	4	(X/Y/Z)	39_2_108_p1_0-564_filt_butterworth.trc
DataRate	CameraRate	NumFrames	NumMarkers	Units	OrigDataRate	OrigDataStartFrame	OrigNumFrames
48.0	48.0	5	27	m	48.0	141	564
Frame#	Time	RHip			RKnee			RAnkle			RBigToe			RSmallToe			RHeel			LHip			LKnee			LAnkle			LBigToe			LSmallToe			LHeel			Neck			Head			Nose			RShoulder			RElbow			RWrist			RThumb			RIndex			RPinky			LShoulder			LElbow			LWrist			LThumb			LIndex			LPinky			
		X1	Y1	Z1	X2	Y2	Z2	X3	Y3	Z3	X4	Y4	Z4	X5	Y5	Z5	X6	Y6	Z6	X7	Y7	Z7	X8	Y8	Z8	X9	Y9	Z9	X10	Y10	Z10	X11	Y11	Z11	X12	Y12	Z12	X13	Y13	Z13	X14	Y14	Z14	X15	Y15	Z15	X16	Y16	Z16	X17	Y17	Z17	X18	Y18	Z18	X19	Y19	Z19	X20	Y20	Z20	X21	Y21	Z21	X22	Y22	Z22	X23	Y23	Z23	X24	Y24	Z24	X25	Y25	Z25	X26	Y26	Z26	X27	Y27	Z27	
141	2.9375	0.2992150578961503	0.7620505261529809	0.4956586407541419	0.25478397152871773	0.8261068709432094	0.9342384856905029	0.21882895248671852	0.9023353207930256	1.339345903040629	0.21228063063408636	0.6639585725156337	1.3478925325642048	0.2708513498436289	0.7051105117553134	1.370884563989338	0.19880110255300454	0.9693367368243012	1.3845692624478096	0.08786389791793947	0.7568324297362743	0.4854412030909277	0.07253465309790609	0.7937217495097517	0.8960022859625312	0.0564822565091221	0.8433120017355346	1.2927376452724824	0.07488217773904002	0.6701163618521666	1.3337717339321202	0.008647837472384519	0.7142046713243084	1.3410479465391003	0.06022272797300082	0.9176868915349836	1.364642863706785	0.24370511792047098	0.566477688698014	0.0864304632514783	0.31150005726342916	0.2942804661541167	-0.16077510288832053	0.2840855831663086	0.33836374190659757	0.0076829635918796175	0.4025625608587004	0.5201010624521446	0.10784527882993294	0.37170197373024655	0.513964374860121	0.36228736411274554	0.30631392514273864	0.30699412700978423	0.519893481927734	0.2428807372080395	0.16414142933072295	0.560481993262639	0.2425789515986586	0.16331680802229404	0.5710471737140369	0.2623246723128061	0.24476901938954662	0.60707193777484	0.07053998307210532	0.5708118689574815	0.06838446758925255	0.018408966967938267	0.6490695060645624	0.3253069842275855	0.0391596214298304	0.601528766763658	0.5585018576949023	0.08497860337235484	0.4885560521800979	0.628856596286026	0.06154302372454799	0.48030298129212545	0.6745975941631568	0.015569991031510369	0.6065929195636491	0.6927279740092674
142	2.958333333333333	0.29940473280741475	0.7623630334021488	0.49415535582400055	0.2582061178282467	0.8192783328309132	0.9306458338570547	0.21800336045297297	0.9121360224286887	1.3429913220822822	0.21184516585962665	0.6637589969585493	1.347824873460418	0.27070122016113507	0.7045071481472813	1.3705506619780738	0.19881435481004725	0.9695349005810973	1.3844953892966108	0.08969040874635921	0.7646481124454823	0.4855504645891637	0.07806892388701378	0.7973849455771433	0.8967042919151268	0.057808482799003955	0.8449095611575379	1.29312249383906	0.07387762128425593	0.6656784422756518	1.3318085088663922	0.008628056615757123	0.7141393308567159	1.341029099350168	0.060703101710861	0.9193251008913992	1.3647235135933882	0.24406158300744152	0.5639875762898788	0.08923724441177186	0.3104410323144052	0.2891848192317948	-0.1589206719675526	0.28400350692492904	0.33525913280497105	0.011542996156190487	0.4025313752222895	0.5204234138634677	0.11076332670062708	0.3586584853941397	0.5063238362098164	0.36762731103647495	0.30717822310897114	0.3101066310743246	0.54617378629153	0.2675122891841145	0.1458805184306483	0.5924552367700848	0.26611290965935785	0.13828708695732606	0.608969009066431	0.2794689385136771	0.23621539426320048	0.6384104575901881	0.07055130407000856	0.570845512447457	0.06944166852541116	0.01801297557667199	0.6479508510861778	0.32805547795052825	0.03970233783996571	0.6027825563966733	0.5617112934791246	0.08572858283050218	0.5053620803633931	0.6320113438063893	0.06430087262339344	0.49362119301058865	0.6755107855186631	0.014321787780826864	0.6051605079443181	0.685187403165481
143	2.9791666666666665	0.2994427196162629	0.763107684458421	0.4927414868836658	0.2628526187980395	0.8079908871406445	0.9257717003843646	0.216898382440281	0.9190028522796155	1.3466473061522204	0.21137584893309247	0.6637990802151127	1.3478800304595255	0.27039306875203845	0.7036177340006852	1.3702716808931346	0.1987414437789232	0.9693123489652132	1.3842207123770907	0.09297291004868204	0.7741266984189482	0.48502746480558734	0.08236193643915335	0.7974715170024491	0.8967628214174609	0.05969797278293551	0.8470533798652815	1.2926983272720283	0.07181119571884775	0.657374654449019	1.3280887212605883	0.008979768097892362	0.7129880978391591	1.3411344715489877	0.061448012669995375	0.923153152471827	1.3649152372821234	0.24445451916763086	0.5641082892931458	0.09087356905718218	0.3080943369765825	0.2816200108819837	-0.156246924989688	0.2826562847085601	0.3346518651978533	0.01734716783714193	0.40331046744497145	0.5197755550750798	0.11511960679243244	0.3456472160036478	0.4998199491255748	0.37315429996872135	0.31031344699287255	0.3186789768060438	0.5725205187319158	0.29846916892381586	0.14500915631976385	0.6268567256023161	0.30091092567368016	0.1422015415581026	0.6501637062957599	0.3096316578316744	0.2336256227974214	0.6730526763494646	0.07050875509232128	0.5708120991814387	0.07110685029664296	0.017424920223914835	0.6472055284082744	0.32964889805805164	0.03904499227404496	0.6003097316600601	0.5644389720530668	0.08789300824898487	0.5359538922682592	0.6395187028538987	0.06742617873581176	0.5236502937834898	0.6797131102670143	0.014486165634724268	0.6151145513315278	0.6881748334747565
144	3.0	0.29927308387404683	0.7637517820528974	0.49299620746720507	0.2662232735980164	0.8008119251288919	0.9247899924029221	0.21638270241727386	0.9204493351015134	1.3479720783081155	0.21207615725059542	0.6643484680640492	1.348242151610013	0.27020824957250733	0.7032267561865126	1.3702200188082099	0.1986087683901968	0.9687740341056738	1.3838678173823344	0.0949539562330805	0.7761463105111526	0.48251543648980355	0.0828970689399703	0.7868946715222926	0.8952704879691954	0.060882669561371575	0.8480117998198144	1.291050768220447	0.0701934665419825	0.649515277274861	1.3245048961710255	0.010461006027033884	0.70871917790841	1.3405204243895716	0.062035396745321214	0.9271615213530818	1.3649913355442136	0.24468601010405222	0.5650727533597698	0.09194482497017287	0.3057717357022273	0.2723988673431937	-0.15297986113463807	0.27953564111125345	0.33511530686847746	0.02374177070680015	0.40462695244148816	0.516605809166043	0.1190846959780983	0.33874805293953303	0.49767096393020677	0.37808869668384243	0.3155956256763085	0.3283536388035698	0.5914703057918304	0.32072354553017507	0.16372173347160818	0.6527711194084	0.3300335990245297	0.17174155028284135	0.6829279827085856	0.33751657761551274	0.2421840073950902	0.7012264609798335	0.07041304550742594	0.5706856859503509	0.07461453667421471	0.017133796379463183	0.6460303958533578	0.3298798558739473	0.037740459459057324	0.5965777462447045	0.5659008500180929	0.09003072959400062	0.5611339637006812	0.6464389586238212	0.06888430682227656	0.543447820279253	0.6850755538963811	0.015194565119336504	0.626035208985122	0.6942437384148785
145	3.020833333333333	0.29898759843574796	0.7641666780999871	0.49402448969656254	0.26819371688795657	0.8006101822700971	0.9275174888799008	0.2165446276402414	0.9189925178284728	1.3464459379112885	0.21413320370765776	0.6652108301103092	1.3488047124164517	0.270208343194853	0.7035607026440659	1.3703743017204404	0.19875688761245833	0.9696897921869918	1.3842599143285288	0.09495861032735398	0.7689407026811182	0.47840365535205576	0.08132926373915202	0.7745943464504383	0.8934961544080139	0.06099087773638941	0.8476203036880378	1.2894129431157793	0.07032368741432136	0.6468545535027657	1.323237528402737	0.012751547856560668	0.7023121596562933	1.3386413840480722	0.062175013407085346	0.9289459258504144	1.3647377298469672	0.24466717472763944	0.5656972099767028	0.09418204738443187	0.30464720497968456	0.2663499035915843	-0.1499902073734809	0.2767207189696507	0.33518378314912445	0.029698437707892458	0.40556276009402503	0.5120052609597967	0.12180878936488328	0.33802821174959935	0.49828131013184346	0.3813860992265725	0.3212564965552188	0.33713756482220014	0.6017810773868281	0.3307161016872435	0.19372224381894548	0.6686901686759753	0.3449439674643352	0.20689686420004297	0.7061864196403111	0.34778147080462163	0.26881279523733204	0.7207587536869626	0.07003902329887374	0.5701066755593474	0.07875568079712346	0.018308095930541578	0.6424366538496926	0.32982236280499333	0.03640572406405433	0.5951098734007695	0.5667815731592705	0.09042911734214426	0.5696238650154413	0.6479941487742259	0.06911960387252739	0.5480893568766652	0.689061676100404	0.015311143290067723	0.628853081583435	0.6972028906716083
